<mxfile host="65bd71144e">
    <diagram id="0sdaWvDVDTFVifVHx63x" name="PageCompositions">
        <mxGraphModel dx="1065" dy="790" grid="1" gridSize="10" guides="1" tooltips="1" connect="1" arrows="1" fold="1" page="1" pageScale="1" pageWidth="1100" pageHeight="850" math="0" shadow="0">
            <root>
                <mxCell id="0"/>
                <mxCell id="1" parent="0"/>
                <mxCell id="4" value="根据编程原则：基于模型&lt;br&gt;&lt;br&gt;Model: 事物的定义&lt;br&gt;&lt;br&gt;ViewModel: 事物在页面显示的定义&lt;br&gt;&lt;br&gt;Page(React Component): 页面结构" style="text;html=1;strokeColor=#666666;fillColor=#f5f5f5;align=left;verticalAlign=top;whiteSpace=wrap;rounded=0;fontSize=14;fontStyle=0;fontColor=#333333;" vertex="1" parent="1">
                    <mxGeometry x="40" y="30" width="320" height="140" as="geometry"/>
                </mxCell>
                <mxCell id="13" style="edgeStyle=orthogonalEdgeStyle;rounded=0;orthogonalLoop=1;jettySize=auto;html=1;entryX=0;entryY=0.5;entryDx=0;entryDy=0;fontSize=14;exitX=0.5;exitY=1;exitDx=0;exitDy=0;" edge="1" parent="1" source="5" target="12">
                    <mxGeometry relative="1" as="geometry"/>
                </mxCell>
                <mxCell id="19" style="edgeStyle=orthogonalEdgeStyle;rounded=0;orthogonalLoop=1;jettySize=auto;html=1;entryX=1;entryY=0.5;entryDx=0;entryDy=0;fontSize=12;" edge="1" parent="1" source="5" target="15">
                    <mxGeometry relative="1" as="geometry"/>
                </mxCell>
                <mxCell id="5" value="Model&lt;br&gt;(事物在Computer的定义)" style="rounded=1;whiteSpace=wrap;html=1;fontSize=14;fillColor=#dae8fc;strokeColor=#6c8ebf;gradientColor=#7ea6e0;fontColor=#000000;" vertex="1" parent="1">
                    <mxGeometry x="240" y="260" width="170" height="60" as="geometry"/>
                </mxCell>
                <mxCell id="14" style="edgeStyle=orthogonalEdgeStyle;rounded=0;orthogonalLoop=1;jettySize=auto;html=1;entryX=1;entryY=0.5;entryDx=0;entryDy=0;fontSize=14;exitX=0.5;exitY=1;exitDx=0;exitDy=0;" edge="1" parent="1" source="6" target="12">
                    <mxGeometry relative="1" as="geometry"/>
                </mxCell>
                <mxCell id="20" style="edgeStyle=orthogonalEdgeStyle;rounded=0;orthogonalLoop=1;jettySize=auto;html=1;entryX=0;entryY=0.5;entryDx=0;entryDy=0;fontSize=12;" edge="1" parent="1" source="6" target="17">
                    <mxGeometry relative="1" as="geometry"/>
                </mxCell>
                <mxCell id="21" style="edgeStyle=orthogonalEdgeStyle;rounded=0;orthogonalLoop=1;jettySize=auto;html=1;entryX=0;entryY=0.5;entryDx=0;entryDy=0;fontSize=12;" edge="1" parent="1" source="6" target="16">
                    <mxGeometry relative="1" as="geometry"/>
                </mxCell>
                <mxCell id="22" style="edgeStyle=orthogonalEdgeStyle;rounded=0;orthogonalLoop=1;jettySize=auto;html=1;entryX=0;entryY=0.5;entryDx=0;entryDy=0;fontSize=12;" edge="1" parent="1" source="6" target="18">
                    <mxGeometry relative="1" as="geometry"/>
                </mxCell>
                <mxCell id="6" value="Page&lt;br&gt;(事物通过Computer表达方式)" style="rounded=1;whiteSpace=wrap;html=1;fontSize=14;gradientColor=#7ea6e0;fillColor=#dae8fc;strokeColor=#6c8ebf;fontColor=#000000;" vertex="1" parent="1">
                    <mxGeometry x="590" y="260" width="190" height="60" as="geometry"/>
                </mxCell>
                <mxCell id="11" value="&lt;span&gt;Model :1 &amp;lt;------&amp;gt; :1 Page&lt;/span&gt;&lt;br&gt;&lt;span&gt;Model :1 &amp;lt;------&amp;gt; :n Page&lt;/span&gt;&lt;br&gt;&lt;span&gt;Model :n &amp;lt;------&amp;gt; :1 Page&lt;/span&gt;&lt;br&gt;&lt;span&gt;Model :n &amp;lt;------&amp;gt; :n Page&lt;br&gt;&lt;/span&gt;&lt;br&gt;&lt;span&gt;如何将两者联系在一起?&lt;br&gt;使用ViewModel将两者联系起来&lt;br&gt;&lt;/span&gt;" style="text;html=1;strokeColor=#3A5431;fillColor=#6d8764;align=left;verticalAlign=middle;whiteSpace=wrap;rounded=0;fontSize=14;fontColor=#000000;" vertex="1" parent="1">
                    <mxGeometry x="410" y="380" width="230" height="130" as="geometry"/>
                </mxCell>
                <mxCell id="12" value="ViewModel" style="rounded=1;whiteSpace=wrap;html=1;fontSize=14;align=center;gradientColor=#7ea6e0;fillColor=#dae8fc;strokeColor=#6c8ebf;fontColor=#000000;" vertex="1" parent="1">
                    <mxGeometry x="440" y="535" width="120" height="60" as="geometry"/>
                </mxCell>
                <mxCell id="15" value="Model Operations" style="rounded=0;whiteSpace=wrap;html=1;fontSize=12;align=center;gradientColor=#ea6b66;fillColor=#f8cecc;strokeColor=#b85450;fontColor=#000000;" vertex="1" parent="1">
                    <mxGeometry x="60" y="265" width="120" height="50" as="geometry"/>
                </mxCell>
                <mxCell id="16" value="Page Operations" style="rounded=0;whiteSpace=wrap;html=1;fontSize=12;align=center;gradientColor=#ea6b66;fillColor=#f8cecc;strokeColor=#b85450;fontColor=#000000;" vertex="1" parent="1">
                    <mxGeometry x="850" y="170" width="120" height="50" as="geometry"/>
                </mxCell>
                <mxCell id="17" value="Page Style" style="rounded=0;whiteSpace=wrap;html=1;fontSize=12;align=center;gradientColor=#ea6b66;fillColor=#f8cecc;strokeColor=#b85450;fontColor=#000000;" vertex="1" parent="1">
                    <mxGeometry x="850" y="265" width="120" height="50" as="geometry"/>
                </mxCell>
                <mxCell id="18" value="Page Components" style="rounded=0;whiteSpace=wrap;html=1;fontSize=12;align=center;gradientColor=#ea6b66;fillColor=#f8cecc;strokeColor=#b85450;fontColor=#000000;" vertex="1" parent="1">
                    <mxGeometry x="850" y="360" width="120" height="50" as="geometry"/>
                </mxCell>
                <mxCell id="23" value="PageModel" style="rounded=1;whiteSpace=wrap;html=1;fontSize=12;align=center;gradientColor=#7ea6e0;fillColor=#dae8fc;strokeColor=#6c8ebf;fontColor=#000000;" vertex="1" parent="1">
                    <mxGeometry x="770" y="530" width="120" height="60" as="geometry"/>
                </mxCell>
                <mxCell id="8lRDFDODpQALmgXZ3WMY-26" style="edgeStyle=orthogonalEdgeStyle;rounded=0;orthogonalLoop=1;jettySize=auto;html=1;entryX=0;entryY=0.5;entryDx=0;entryDy=0;fontSize=12;fontColor=#000000;" edge="1" parent="1" source="8lRDFDODpQALmgXZ3WMY-23" target="8lRDFDODpQALmgXZ3WMY-24">
                    <mxGeometry relative="1" as="geometry"/>
                </mxCell>
                <mxCell id="8lRDFDODpQALmgXZ3WMY-27" style="edgeStyle=orthogonalEdgeStyle;rounded=0;orthogonalLoop=1;jettySize=auto;html=1;entryX=0;entryY=0.5;entryDx=0;entryDy=0;fontSize=12;fontColor=#000000;" edge="1" parent="1" source="8lRDFDODpQALmgXZ3WMY-23" target="8lRDFDODpQALmgXZ3WMY-25">
                    <mxGeometry relative="1" as="geometry"/>
                </mxCell>
                <mxCell id="8lRDFDODpQALmgXZ3WMY-23" value="Page" style="rounded=1;whiteSpace=wrap;html=1;fontSize=12;fillColor=#f5f5f5;align=center;strokeColor=#666666;fontColor=#333333;" vertex="1" parent="1">
                    <mxGeometry x="50" y="690" width="100" height="50" as="geometry"/>
                </mxCell>
                <mxCell id="8lRDFDODpQALmgXZ3WMY-24" value="可变的" style="rounded=0;whiteSpace=wrap;html=1;fontSize=12;fontColor=#333333;fillColor=#f5f5f5;align=center;strokeColor=#666666;" vertex="1" parent="1">
                    <mxGeometry x="250" y="640" width="90" height="40" as="geometry"/>
                </mxCell>
                <mxCell id="8lRDFDODpQALmgXZ3WMY-25" value="不可变" style="rounded=0;whiteSpace=wrap;html=1;fontSize=12;fontColor=#333333;fillColor=#f5f5f5;align=center;strokeColor=#666666;" vertex="1" parent="1">
                    <mxGeometry x="250" y="740" width="90" height="40" as="geometry"/>
                </mxCell>
            </root>
        </mxGraphModel>
    </diagram>
    <diagram id="LHbcgk-5uFvVyf_OVRt5" name="LoadPage">
        <mxGraphModel dx="1204" dy="790" grid="1" gridSize="10" guides="1" tooltips="1" connect="1" arrows="1" fold="1" page="1" pageScale="1" pageWidth="1100" pageHeight="850" math="0" shadow="0">
            <root>
                <mxCell id="Z6J97lpENlpPEJQu4Hzo-0"/>
                <mxCell id="Z6J97lpENlpPEJQu4Hzo-1" parent="Z6J97lpENlpPEJQu4Hzo-0"/>
                <mxCell id="Z6J97lpENlpPEJQu4Hzo-14" style="edgeStyle=orthogonalEdgeStyle;rounded=0;orthogonalLoop=1;jettySize=auto;html=1;entryX=0;entryY=0.5;entryDx=0;entryDy=0;fontSize=12;fontColor=#FFFFFF;" edge="1" parent="Z6J97lpENlpPEJQu4Hzo-1" source="Z6J97lpENlpPEJQu4Hzo-8" target="Z6J97lpENlpPEJQu4Hzo-12">
                    <mxGeometry relative="1" as="geometry">
                        <Array as="points">
                            <mxPoint x="330" y="160"/>
                        </Array>
                    </mxGeometry>
                </mxCell>
                <mxCell id="Z6J97lpENlpPEJQu4Hzo-15" value="request successed" style="edgeLabel;html=1;align=center;verticalAlign=middle;resizable=0;points=[];fontSize=12;fontColor=#FFFFFF;" vertex="1" connectable="0" parent="Z6J97lpENlpPEJQu4Hzo-14">
                    <mxGeometry x="0.0588" y="-3" relative="1" as="geometry">
                        <mxPoint x="3" y="-15" as="offset"/>
                    </mxGeometry>
                </mxCell>
                <mxCell id="Z6J97lpENlpPEJQu4Hzo-16" style="edgeStyle=orthogonalEdgeStyle;rounded=0;orthogonalLoop=1;jettySize=auto;html=1;entryX=-0.008;entryY=0.617;entryDx=0;entryDy=0;entryPerimeter=0;fontSize=12;fontColor=#FFFFFF;" edge="1" parent="Z6J97lpENlpPEJQu4Hzo-1" source="Z6J97lpENlpPEJQu4Hzo-8" target="Z6J97lpENlpPEJQu4Hzo-13">
                    <mxGeometry relative="1" as="geometry">
                        <Array as="points">
                            <mxPoint x="330" y="347"/>
                        </Array>
                    </mxGeometry>
                </mxCell>
                <mxCell id="Z6J97lpENlpPEJQu4Hzo-17" value="request failed" style="edgeLabel;html=1;align=center;verticalAlign=middle;resizable=0;points=[];fontSize=12;fontColor=#FFFFFF;" vertex="1" connectable="0" parent="Z6J97lpENlpPEJQu4Hzo-16">
                    <mxGeometry x="-0.0868" y="-2" relative="1" as="geometry">
                        <mxPoint x="22" y="-13" as="offset"/>
                    </mxGeometry>
                </mxCell>
                <mxCell id="Z6J97lpENlpPEJQu4Hzo-8" value="LoadPage" style="rounded=1;whiteSpace=wrap;html=1;fontSize=12;align=center;gradientColor=#7ea6e0;fillColor=#dae8fc;strokeColor=#6c8ebf;fontColor=#000000;" vertex="1" parent="Z6J97lpENlpPEJQu4Hzo-1">
                    <mxGeometry x="260" y="220" width="120" height="60" as="geometry"/>
                </mxCell>
                <mxCell id="Z6J97lpENlpPEJQu4Hzo-9" value="" style="endArrow=classic;html=1;fontSize=12;fontColor=#FFFFFF;" edge="1" parent="Z6J97lpENlpPEJQu4Hzo-1">
                    <mxGeometry relative="1" as="geometry">
                        <mxPoint x="80" y="250" as="sourcePoint"/>
                        <mxPoint x="260" y="250" as="targetPoint"/>
                    </mxGeometry>
                </mxCell>
                <mxCell id="Z6J97lpENlpPEJQu4Hzo-10" value="request page" style="edgeLabel;resizable=0;html=1;align=center;verticalAlign=middle;fontSize=13;" connectable="0" vertex="1" parent="Z6J97lpENlpPEJQu4Hzo-9">
                    <mxGeometry relative="1" as="geometry">
                        <mxPoint x="10" y="-11" as="offset"/>
                    </mxGeometry>
                </mxCell>
                <mxCell id="Z6J97lpENlpPEJQu4Hzo-12" value="Page" style="rounded=1;whiteSpace=wrap;html=1;fontSize=12;align=center;gradientColor=#97d077;fillColor=#d5e8d4;strokeColor=#82b366;fontColor=#000000;" vertex="1" parent="Z6J97lpENlpPEJQu4Hzo-1">
                    <mxGeometry x="600" y="130" width="120" height="60" as="geometry"/>
                </mxCell>
                <mxCell id="Z6J97lpENlpPEJQu4Hzo-13" value="ErrorPage" style="rounded=1;whiteSpace=wrap;html=1;fontSize=12;align=center;gradientColor=#d5739d;fillColor=#e6d0de;strokeColor=#996185;fontColor=#000000;" vertex="1" parent="Z6J97lpENlpPEJQu4Hzo-1">
                    <mxGeometry x="600" y="310" width="120" height="60" as="geometry"/>
                </mxCell>
            </root>
        </mxGraphModel>
    </diagram>
</mxfile>